<svg width="65" height="64" viewBox="0 0 65 64" fill="none" xmlns="http://www.w3.org/2000/svg">
<g clip-path="url(#clip0_31_16068)">
<path d="M48.4611 18.9048C48.4611 19.4289 48.3057 19.9412 48.0146 20.3769C47.7234 20.8126 47.3096 21.1522 46.8255 21.3528C46.3413 21.5533 45.8086 21.6058 45.2946 21.5035C44.7806 21.4013 44.3085 21.149 43.9379 20.7784C43.5674 20.4078 43.315 19.9357 43.2128 19.4218C43.1106 18.9078 43.163 18.375 43.3636 17.8909C43.5641 17.4067 43.9037 16.9929 44.3395 16.7018C44.7752 16.4106 45.2875 16.2552 45.8115 16.2552C46.5142 16.2552 47.1882 16.5344 47.6851 17.0313C48.182 17.5282 48.4611 18.2021 48.4611 18.9048ZM37.8627 24.2041C37.3386 24.2041 36.8263 24.3595 36.3906 24.6506C35.9549 24.9418 35.6153 25.3556 35.4147 25.8397C35.2142 26.3239 35.1617 26.8566 35.264 27.3706C35.3662 27.8846 35.6185 28.3567 35.9891 28.7272C36.3597 29.0978 36.8318 29.3501 37.3457 29.4524C37.8597 29.5546 38.3925 29.5021 38.8766 29.3016C39.3608 29.1011 39.7746 28.7615 40.0657 28.3257C40.3569 27.89 40.5123 27.3777 40.5123 26.8537C40.5123 26.151 40.2331 25.477 39.7362 24.9801C39.2393 24.4832 38.5654 24.2041 37.8627 24.2041ZM29.9138 32.1529C29.3898 32.1529 28.8775 32.3083 28.4418 32.5995C28.006 32.8906 27.6664 33.3044 27.4659 33.7886C27.2653 34.2727 27.2129 34.8055 27.3151 35.3194C27.4173 35.8334 27.6697 36.3055 28.0403 36.6761C28.4108 37.0466 28.8829 37.299 29.3969 37.4012C29.9109 37.5035 30.4436 37.451 30.9278 37.2504C31.4119 37.0499 31.8257 36.7103 32.1169 36.2746C32.408 35.8388 32.5634 35.3266 32.5634 34.8025C32.5634 34.0998 32.2843 33.4259 31.7874 32.929C31.2905 32.4321 30.6165 32.1529 29.9138 32.1529ZM62.6418 2.07449C63.4315 2.85691 63.9797 3.84978 64.2212 4.9349C64.4626 6.02001 64.3872 7.15166 64.0037 8.1951L63.805 8.75417C59.8253 19.7978 56.0072 30.2982 48.4611 39.6248V40.1018C48.4495 44.6244 47.3909 49.083 45.3683 53.1282C43.3457 57.1734 40.414 60.6954 36.8028 63.4183L36.0927 63.9483H24.6146V54.4468L19.3154 49.1475L13.2398 55.2231L9.49324 51.4765L15.5688 45.401L10.2696 40.1018H0.768066V28.0195L1.29799 27.3147C4.04812 23.7755 7.59049 20.931 11.6402 19.0102C15.6898 17.0894 20.1338 16.1457 24.6146 16.2552H25.0915C34.4182 8.71178 44.9106 4.89368 55.9489 0.916613L56.5212 0.712593C57.5647 0.329177 58.6963 0.253702 59.7814 0.495152C60.8666 0.736602 61.8594 1.28481 62.6418 2.07449V2.07449ZM6.06729 34.8025H9.8271C12.4177 30.3336 15.4167 26.1142 18.7854 22.1983C13.8073 23.2281 9.32456 25.9131 6.06729 29.816V34.8025ZM42.367 46.074C38.4918 49.3839 34.3236 52.3345 29.9138 54.8892V58.649H34.3042C38.2619 55.4225 41.0865 51.0171 42.367 46.074V46.074ZM58.8926 5.8237C58.8221 5.74516 58.7287 5.69068 58.6256 5.66787C58.5225 5.64506 58.4148 5.65508 58.3177 5.69652L57.748 5.90319C44.9133 10.5268 33.8299 14.5224 24.286 24.0636C20.6054 28.0046 17.3824 32.3494 14.6785 37.015L27.7014 50.0404C32.3661 47.3342 36.7107 44.1104 40.6527 40.4303C50.1913 30.8917 54.1922 19.7978 58.8185 6.95773L59.0198 6.39866C59.0609 6.30147 59.0707 6.19392 59.0479 6.09091C59.0251 5.9879 58.9708 5.89452 58.8926 5.8237V5.8237Z" fill="#183883"/>
</g>
<defs>
<clipPath id="clip0_31_16068">
<rect width="63.5907" height="63.5907" fill="white" transform="translate(0.768066 0.355225)"/>
</clipPath>
</defs>
</svg>
