<svg width="70" height="69" viewBox="0 0 70 69" fill="none" xmlns="http://www.w3.org/2000/svg">
<g clip-path="url(#clip0_31_16070)">
<path d="M60.6168 61.7751H9.39091C7.12659 61.7751 4.95501 60.8756 3.35389 59.2745C1.75277 57.6733 0.853271 55.5018 0.853271 53.2374L0.853271 6.52515L17.9286 23.6004L35.0038 6.52515L52.0791 23.6004L69.1544 6.52515V53.2374C69.1544 55.5018 68.2549 57.6733 66.6538 59.2745C65.0527 60.8756 62.8811 61.7751 60.6168 61.7751ZM6.54503 20.2651V53.2374C6.54503 53.9922 6.84487 54.7161 7.37857 55.2498C7.91228 55.7835 8.63614 56.0833 9.39091 56.0833H60.6168C61.3715 56.0833 62.0954 55.7835 62.6291 55.2498C63.1628 54.7161 63.4626 53.9922 63.4626 53.2374V20.2651L52.0791 31.6486L35.0038 14.5733L17.9286 31.6486L6.54503 20.2651Z" fill="#183883"/>
</g>
<defs>
<clipPath id="clip0_31_16070">
<rect width="68.3011" height="68.3011" fill="white" transform="translate(0.853271)"/>
</clipPath>
</defs>
</svg>
