<svg width="68" height="68" viewBox="0 0 68 68" fill="none" xmlns="http://www.w3.org/2000/svg">
<path d="M34.1948 0.177551C29.7874 0.177551 25.4232 1.04565 21.3513 2.73229C17.2794 4.41893 13.5796 6.89107 10.4631 10.0076C4.16902 16.3016 0.633057 24.8382 0.633057 33.7393C0.633057 42.6405 4.16902 51.177 10.4631 57.4711C13.5796 60.5876 17.2794 63.0597 21.3513 64.7464C25.4232 66.433 29.7874 67.3011 34.1948 67.3011C43.096 67.3011 51.6325 63.7651 57.9266 57.4711C64.2206 51.177 67.7566 42.6405 67.7566 33.7393C67.7566 29.8462 67.0518 25.9865 65.7093 22.3619L60.3394 27.7318C60.8093 29.7119 61.0442 31.7256 61.0442 33.7393C61.0442 40.8602 58.2155 47.6895 53.1802 52.7247C48.145 57.76 41.3157 60.5887 34.1948 60.5887C27.0739 60.5887 20.2447 57.76 15.2094 52.7247C10.1742 47.6895 7.34541 40.8602 7.34541 33.7393C7.34541 26.6184 10.1742 19.7892 15.2094 14.7539C20.2447 9.71867 27.0739 6.8899 34.1948 6.8899C36.2085 6.8899 38.2222 7.12484 40.2024 7.5947L45.6058 2.19126C41.9476 0.882348 38.088 0.177551 34.1948 0.177551ZM57.6881 0.177551L44.2634 13.6023V18.6365L35.7051 27.1948C35.2017 27.027 34.6982 27.027 34.1948 27.027C32.4146 27.027 30.7073 27.7342 29.4485 28.993C28.1897 30.2518 27.4825 31.9591 27.4825 33.7393C27.4825 35.5195 28.1897 37.2269 29.4485 38.4857C30.7073 39.7445 32.4146 40.4517 34.1948 40.4517C35.9751 40.4517 37.6824 39.7445 38.9412 38.4857C40.2 37.2269 40.9072 35.5195 40.9072 33.7393C40.9072 33.2359 40.9072 32.7325 40.7394 32.229L49.2976 23.6708H54.3319L67.7566 10.2461H57.6881V0.177551ZM34.1948 13.6023C28.8541 13.6023 23.7322 15.7238 19.9558 19.5003C16.1793 23.2767 14.0578 28.3986 14.0578 33.7393C14.0578 39.08 16.1793 44.2019 19.9558 47.9784C23.7322 51.7548 28.8541 53.8764 34.1948 53.8764C39.5355 53.8764 44.6574 51.7548 48.4339 47.9784C52.2103 44.2019 54.3319 39.08 54.3319 33.7393H47.6195C47.6195 37.2998 46.2051 40.7144 43.6875 43.232C41.1699 45.7496 37.7553 47.164 34.1948 47.164C30.6344 47.164 27.2197 45.7496 24.7021 43.232C22.1845 40.7144 20.7701 37.2998 20.7701 33.7393C20.7701 30.1789 22.1845 26.7642 24.7021 24.2466C27.2197 21.729 30.6344 20.3146 34.1948 20.3146V13.6023Z" fill="#183883"/>
</svg>
